# xmcd
#
# Track frame offsets: 
#        150
#        11715
#        29574
#        40524
#        52542
#        61622
#        80918
#        91344
#        102510
#        113468
#        125665
#        137307
#        149192
#        161914
#        177755
#        190770
#        203907
#        214840
#        231180
#        236344
#        249091
#        252574
#        264737
#        278055
#        300194
#        314869
#        325439
#
# Disc length: 4509 seconds
#
# Revision: 1
# Processed by: cddbd v1.5.2PL0 Copyright (c) Steve Scherf et al.
# Submitted via: ExactAudioCopy v1.3
#
DISCID=7e119b1b
DTITLE=Various Artist - Louisiana Hayride CD 18 (Live July 1960)
DYEAR=2017
DGENRE=Country
TTITLE0=Wynn Stewart - Above And Beyond
TTITLE1=Wynn Stewart - (imitations) The Keeper Of The Key
TTITLE2=Wynn Stewart - Heartaches For A Dime
TTITLE3=Jack Reno - A Brand New Heartache
TTITLE4=Jack Reno - Leather Jacket
TTITLE5=Merle Kilgore - (intro) Love Has Made You Beautiful
TTITLE6=Merle Kilgore - More And More
TTITLE7=Merle Kilgore - Pipeliner Blues
TTITLE8=Dorothy and David - Oh So Many Years
TTITLE9=Jack Reno - The Moon Won't Tell
TTITLE10=Jack Reno - Wonder Drug
TTITLE11=Johnny Harris - Doggone
TTITLE12=Johnny Harris - Cajun Weekend
TTITLE13=James O'Gwynn - I Won't Love You Anymore
TTITLE14=Warren Smith - Rock 'n' Roll Ruby
TTITLE15=Warren Smith - I Don't Believe I'll Fall In Love Today
TTITLE16=Warren Smith - Ubangi Stomp
TTITLE17=Warren Smith - impersonations
TTITLE18=Frank Page - announcement about closing the weekly Hayride
TTITLE19=Fay Darling - Louisiana
TTITLE20=Frank Page - award to Merle Kilgore
TTITLE21=Merle Kilgore - Please Help Me I'm Falling
TTITLE22=Jerry Jericho - I Wasted A Nickel Last Night
TTITLE23=Warren Smith - (donut ad) Singing The Blues
TTITLE24=Warren Smith - Cave In
TTITLE25=Warren Smith - Don't Be Cruel
TTITLE26=talk, fiddle tune and outro theme
EXTD=
EXTT0=
EXTT1=
EXTT2=
EXTT3=
EXTT4=
EXTT5=
EXTT6=
EXTT7=
EXTT8=
EXTT9=
EXTT10=
EXTT11=
EXTT12=
EXTT13=
EXTT14=
EXTT15=
EXTT16=
EXTT17=
EXTT18=
EXTT19=
EXTT20=
EXTT21=
EXTT22=
EXTT23=
EXTT24=
EXTT25=
EXTT26=
PLAYORDER=
